<?xml version="1.0" encoding="UTF-8" standalone="no"?>
<!-- Created with Inkscape (http://www.inkscape.org/) -->

<svg
   width="210mm"
   height="210mm"
   viewBox="0 0 210 210"
   version="1.1"
   id="svg1"
   sodipodi:docname="favicon.svg"
   inkscape:version="1.4 (e7c3feb1, 2024-10-09)"
   xmlns:inkscape="http://www.inkscape.org/namespaces/inkscape"
   xmlns:sodipodi="http://sodipodi.sourceforge.net/DTD/sodipodi-0.dtd"
   xmlns:xlink="http://www.w3.org/1999/xlink"
   xmlns="http://www.w3.org/2000/svg"
   xmlns:svg="http://www.w3.org/2000/svg">
  <sodipodi:namedview
     id="namedview1"
     pagecolor="#ffffff"
     bordercolor="#000000"
     borderopacity="0.25"
     inkscape:showpageshadow="2"
     inkscape:pageopacity="0.0"
     inkscape:pagecheckerboard="0"
     inkscape:deskcolor="#d1d1d1"
     inkscape:document-units="mm"
     inkscape:zoom="0.26136996"
     inkscape:cx="441.90235"
     inkscape:cy="791.98084"
     inkscape:window-width="1440"
     inkscape:window-height="847"
     inkscape:window-x="0"
     inkscape:window-y="25"
     inkscape:window-maximized="0"
     inkscape:current-layer="svg1" />
  <defs
     id="defs1">
    <linearGradient
       id="linearGradient7">
      <stop
         style="stop-color:#4158d0;stop-opacity:1;"
         offset="0"
         id="stop5" />
      <stop
         style="stop-color:#3a916a;stop-opacity:1;"
         offset="0.47352415"
         id="stop6" />
      <stop
         style="stop-color:#ffcc70;stop-opacity:1;"
         offset="1"
         id="stop7" />
    </linearGradient>
    <linearGradient
       id="linearGradient2">
      <stop
         style="stop-color:#4158d0;stop-opacity:1;"
         offset="0"
         id="stop2" />
      <stop
         style="stop-color:#c850c0;stop-opacity:1;"
         offset="0.47352415"
         id="stop4" />
      <stop
         style="stop-color:#ffcc70;stop-opacity:1;"
         offset="1"
         id="stop3" />
    </linearGradient>
    <linearGradient
       xlink:href="#linearGradient2"
       id="linearGradient3"
       x1="0"
       y1="166.60446"
       x2="210"
       y2="38.18808"
       gradientUnits="userSpaceOnUse"
       spreadMethod="pad" />
    <linearGradient
       inkscape:collect="always"
       xlink:href="#linearGradient7"
       id="linearGradient5"
       x1="0"
       y1="210"
       x2="210"
       y2="0"
       gradientUnits="userSpaceOnUse"
       gradientTransform="translate(0,-1e-4)" />
  </defs>
  <circle
     style="fill:#ffffff;stroke-width:1"
     id="path8"
     cx="105"
     cy="105"
     r="105" />
  <path
     d="M 104.99979,-1e-4 A 105,105 0 0 0 25.646497,36.239548 105,105 0 0 0 9.4888265,61.381166 105,105 0 0 0 4.2534871,75.418036 105,105 0 0 0 0,104.99969 105,105 0 0 0 36.239648,184.35351 105,105 0 0 0 61.381266,200.51118 105,105 0 0 0 104.99979,210 a 105,105 0 0 0 14.7407,-1.0542 105,105 0 0 0 0.3142,-0.0387 105,105 0 0 0 14.20378,-3.09026 105,105 0 0 0 0.52245,-0.14469 105,105 0 0 0 13.45293,-5.01778 105,105 0 0 0 0.64698,-0.28629 105,105 0 0 0 12.48917,-6.81922 105,105 0 0 0 0.69711,-0.44132 105,105 0 0 0 11.33574,-8.4863 105,105 0 0 0 0.65474,-0.56482 105,105 0 0 0 9.99784,-9.99784 105,105 0 0 0 0.56741,-0.65836 105,105 0 0 0 8.48424,-11.33213 105,105 0 0 0 0.44131,-0.69711 105,105 0 0 0 6.81922,-12.48968 105,105 0 0 0 0.28681,-0.64699 105,105 0 0 0 5.01778,-13.45241 105,105 0 0 0 0.14521,-0.52503 105,105 0 0 0 3.08974,-14.20223 105,105 0 0 0 0.0387,-0.3142 105,105 0 0 0 1.0542,-14.7407 105,105 0 0 0 -1.0542,-14.738116 105,105 0 0 0 -0.0387,-0.31781 105,105 0 0 0 -3.08715,-14.191899 105,105 0 0 0 -0.14935,-0.540018 105,105 0 0 0 -5.01055,-13.433806 105,105 0 0 0 -0.29662,-0.668176 105,105 0 0 0 -6.81354,-12.477791 105,105 0 0 0 -0.4439,-0.70125 105,105 0 0 0 -8.47958,-11.326957 105,105 0 0 0 -0.57516,-0.666626 105,105 0 0 0 -9.98906,-9.989571 105,105 0 0 0 -0.66611,-0.574642 105,105 0 0 0 -11.32695,-8.479069 105,105 0 0 0 -0.70125,-0.4439 A 105,105 0 0 0 148.89014,9.6365211 105,105 0 0 0 148.22196,9.3404151 105,105 0 0 0 134.78609,4.3288347 105,105 0 0 0 134.2502,4.1805234 105,105 0 0 0 120.05469,1.0928565 105,105 0 0 0 119.74049,1.0540992 105,105 0 0 0 104.99979,-1e-4 Z m 7.6569,41.710116 c 4.48554,0 8.67197,0.316144 12.55944,0.947745 3.94728,0.631602 7.59535,1.435111 10.94455,2.411223 2.87075,0.861274 5.80135,1.952564 8.79171,3.273185 3.05017,1.263203 6.04048,2.669603 8.97103,4.219897 v 20.58479 h -1.43557 c -1.55499,-1.378039 -3.55839,-3.043338 -6.01049,-4.99556 -2.45209,-1.952223 -5.4424,-3.875903 -8.97102,-5.770708 -3.40902,-1.779967 -7.11731,-3.24413 -11.12439,-4.392496 -4.00708,-1.148366 -8.64206,-1.722376 -13.90509,-1.722376 -5.68169,0 -11.06424,1.119654 -16.147856,3.358968 -5.083613,2.239314 -9.538965,5.541031 -13.366626,9.904822 -3.767854,4.363792 -6.698459,9.847053 -8.791711,16.450159 -2.093253,6.603105 -3.139861,14.038925 -3.139861,22.307165 0,8.785 1.106311,16.3642 3.319178,22.73763 2.212866,6.31601 5.233284,11.6559 9.060945,16.01969 3.708047,4.24896 8.073587,7.46455 13.097392,9.64644 5.023809,2.12448 10.346659,3.18637 15.968539,3.18637 5.14342,0 9.89832,-0.60289 14.26424,-1.80867 4.36593,-1.20579 8.25333,-2.7272 11.66234,-4.56458 3.28939,-1.77997 6.13019,-3.58864 8.52248,-5.42603 2.39228,-1.8948 4.27628,-3.50234 5.65185,-4.82296 h 1.34565 v 20.32589 c -2.93055,1.32062 -5.71164,2.58365 -8.34316,3.78944 -2.57171,1.20578 -5.71153,2.3832 -9.41958,3.53156 -3.88747,1.20579 -7.50595,2.12431 -10.85515,2.75591 -3.2894,0.6316 -7.59523,0.94723 -12.91807,0.94723 -8.73186,0 -16.776096,-1.4064 -24.132382,-4.2199 -7.296479,-2.8135 -13.606236,-7.00537 -18.929077,-12.57494 -5.322841,-5.56958 -9.44957,-12.51701 -12.380123,-20.84266 -2.930553,-8.32565 -4.395597,-17.88578 -4.395597,-28.68042 0,-10.737223 1.405341,-20.096728 4.21628,-28.077872 2.870746,-7.981145 7.027584,-14.92857 12.47004,-20.842656 5.322841,-5.741831 11.632081,-10.105438 18.92856,-13.09119 7.296479,-3.043171 15.460639,-4.565096 24.491529,-4.565096 z"
     style="fill:url(#linearGradient5)"
     id="path7" />
</svg>
